<svg width="18" height="11" viewBox="0 0 18 11" fill="none" xmlns="http://www.w3.org/2000/svg">
<path d="M5.75 10.25C6.14782 10.25 6.52936 10.092 6.81066 9.81066C7.09196 9.52936 7.25 9.14782 7.25 8.75C7.25 8.35218 7.09196 7.97064 6.81066 7.68934C6.52936 7.40804 6.14782 7.25 5.75 7.25C5.35218 7.25 4.97064 7.40804 4.68934 7.68934C4.40804 7.97064 4.25 8.35218 4.25 8.75C4.25 9.14782 4.40804 9.52936 4.68934 9.81066C4.97064 10.092 5.35218 10.25 5.75 10.25V10.25ZM13.25 10.25C13.6478 10.25 14.0294 10.092 14.3107 9.81066C14.592 9.52936 14.75 9.14782 14.75 8.75C14.75 8.35218 14.592 7.97064 14.3107 7.68934C14.0294 7.40804 13.6478 7.25 13.25 7.25C12.8522 7.25 12.4706 7.40804 12.1893 7.68934C11.908 7.97064 11.75 8.35218 11.75 8.75C11.75 9.14782 11.908 9.52936 12.1893 9.81066C12.4706 10.092 12.8522 10.25 13.25 10.25V10.25Z" stroke="#008ECC" stroke-miterlimit="1.5" stroke-linecap="round" stroke-linejoin="round"/>
<path d="M7.2875 8.75H11V0.95C11 0.830653 10.9526 0.716193 10.8682 0.631802C10.7838 0.547411 10.6693 0.5 10.55 0.5H0.5M3.9875 8.75H2.45C2.39091 8.75 2.33239 8.73836 2.27779 8.71575C2.2232 8.69313 2.17359 8.65998 2.1318 8.6182C2.09002 8.57641 2.05687 8.5268 2.03425 8.47221C2.01164 8.41761 2 8.35909 2 8.3V4.625" stroke="#008ECC" stroke-linecap="round"/>
<path d="M1.25 2.75H4.25" stroke="#008ECC" stroke-linecap="round" stroke-linejoin="round"/>
<path d="M11 2.75H15.2075C15.2945 2.75002 15.3796 2.77525 15.4525 2.82264C15.5255 2.87002 15.5831 2.93753 15.6185 3.017L16.961 6.038C16.9866 6.09536 16.9999 6.15744 17 6.22025V8.3C17 8.35909 16.9884 8.41761 16.9657 8.47221C16.9431 8.5268 16.91 8.57641 16.8682 8.6182C16.8264 8.65998 16.7768 8.69313 16.7222 8.71575C16.6676 8.73836 16.6091 8.75 16.55 8.75H15.125M11 8.75H11.75" stroke="#008ECC" stroke-linecap="round"/>
</svg>
