<svg width="21" height="21" viewBox="0 0 21 21" fill="none" xmlns="http://www.w3.org/2000/svg">
<path d="M20.1845 6.43125C19.6548 5.17266 18.8954 4.04297 17.9275 3.07266C16.9595 2.10469 15.8298 1.34297 14.5689 0.815625C13.2798 0.274219 11.9111 0 10.5001 0H10.4533C9.03295 0.00703125 7.65716 0.288281 6.36341 0.841406C5.1142 1.37578 3.99388 2.13516 3.03529 3.10312C2.0767 4.07109 1.32435 5.19609 0.804039 6.45C0.264977 7.74844 -0.00689828 9.12891 0.000132967 10.5492C0.00716422 12.1758 0.396227 13.7906 1.12513 15.2344V18.7969C1.12513 19.3922 1.60795 19.875 2.20326 19.875H5.7681C7.21185 20.6039 8.8267 20.993 10.4533 21H10.5025C11.9064 21 13.2681 20.7281 14.5501 20.1961C15.804 19.6734 16.9314 18.9234 17.897 17.9648C18.865 17.0063 19.6267 15.8859 20.1587 14.6367C20.7119 13.343 20.9931 11.9672 21.0001 10.5469C21.0072 9.11953 20.7306 7.73438 20.1845 6.43125ZM16.6431 16.6969C15.0001 18.3234 12.8204 19.2188 10.5001 19.2188H10.4603C9.04701 19.2117 7.6431 18.8602 6.40326 18.1992L6.20638 18.0938H2.90638V14.7938L2.80091 14.5969C2.13998 13.357 1.78841 11.9531 1.78138 10.5398C1.77201 8.20312 2.66498 6.00937 4.30326 4.35703C5.9392 2.70469 8.12591 1.79062 10.4626 1.78125H10.5025C11.6744 1.78125 12.8111 2.00859 13.8822 2.45859C14.9275 2.89687 15.865 3.52734 16.6712 4.33359C17.4751 5.1375 18.1079 6.07734 18.5462 7.12266C19.0009 8.20547 19.2283 9.35391 19.2236 10.5398C19.2095 12.8742 18.2931 15.0609 16.6431 16.6969Z" fill="white"/>
</svg>
